<svg width="384" height="101" viewBox="0 0 384 101" fill="none" xmlns="http://www.w3.org/2000/svg">
<g clip-path="url(#clip0_30_88)">
<g filter="url(#filter0_d_30_88)">
<rect x="0.5" y="0.5" width="383" height="99.1821" rx="9.82747" fill="white" stroke="#58A6D6"/>
<path d="M123.874 58.1824C121.784 58.1824 119.96 57.7344 118.402 56.8384C116.866 55.9211 115.672 54.5984 114.818 52.8704C113.965 51.1424 113.538 49.0731 113.538 46.6624C113.538 44.2731 113.965 42.2144 114.818 40.4864C115.672 38.7584 116.866 37.4464 118.402 36.5504C119.96 35.6331 121.784 35.1744 123.874 35.1744C126.434 35.1744 128.546 35.8251 130.21 37.1264C131.896 38.4278 132.866 40.3584 133.122 42.9184H129.026C128.322 40.1878 126.605 38.8224 123.874 38.8224C121.89 38.8224 120.386 39.5264 119.362 40.9344C118.36 42.3424 117.858 44.2518 117.858 46.6624C117.858 49.0944 118.36 51.0144 119.362 52.4224C120.365 53.8304 121.869 54.5344 123.874 54.5344C125.176 54.5344 126.264 54.1931 127.138 53.5104C128.034 52.8278 128.664 51.7931 129.026 50.4064H133.122C132.866 52.9664 131.896 54.9078 130.21 56.2304C128.546 57.5318 126.434 58.1824 123.874 58.1824ZM143.099 58.1824C141.627 58.1824 140.262 57.8731 139.003 57.2544C137.766 56.6144 136.763 55.6544 135.995 54.3744C135.227 53.0731 134.843 51.4624 134.843 49.5424C134.843 47.6224 135.227 46.0224 135.995 44.7424C136.763 43.4411 137.766 42.4811 139.003 41.8624C140.262 41.2224 141.627 40.9024 143.099 40.9024C144.55 40.9024 145.905 41.2224 147.163 41.8624C148.422 42.4811 149.435 43.4411 150.203 44.7424C150.971 46.0224 151.355 47.6224 151.355 49.5424C151.355 51.4624 150.971 53.0731 150.203 54.3744C149.435 55.6544 148.422 56.6144 147.163 57.2544C145.905 57.8731 144.55 58.1824 143.099 58.1824ZM143.099 54.7584C144.379 54.7584 145.425 54.3211 146.235 53.4464C147.067 52.5718 147.483 51.2704 147.483 49.5424C147.483 47.8144 147.067 46.5131 146.235 45.6384C145.425 44.7638 144.379 44.3264 143.099 44.3264C141.798 44.3264 140.731 44.7638 139.899 45.6384C139.089 46.5131 138.683 47.8144 138.683 49.5424C138.683 51.2704 139.089 52.5718 139.899 53.4464C140.731 54.3211 141.798 54.7584 143.099 54.7584ZM163.651 40.9024C165.379 40.9024 166.776 41.4464 167.843 42.5344C168.91 43.6224 169.443 45.2438 169.443 47.3984V57.8624H165.347V48.3584C165.347 47.0144 165.059 46.0011 164.483 45.3184C163.907 44.6358 163.064 44.2944 161.955 44.2944C160.782 44.2944 159.843 44.6464 159.139 45.3504C158.435 46.0331 158.083 47.0358 158.083 48.3584V57.8624H153.987V41.2224H158.083V44.6464H158.211C158.339 44.0918 158.616 43.5264 159.043 42.9504C159.47 42.3744 160.067 41.8944 160.835 41.5104C161.624 41.1051 162.563 40.9024 163.651 40.9024ZM181.797 54.7904V57.9904C181.242 58.0544 180.442 58.0864 179.397 58.0864C177.775 58.0864 176.506 57.6918 175.589 56.9024C174.693 56.1131 174.245 54.8758 174.245 53.1904V44.3904H171.461V41.2224H174.245V36.9664H178.341V41.2224H181.605V44.3904H178.341V52.5504C178.341 53.2971 178.501 53.8624 178.821 54.2464C179.141 54.6091 179.674 54.7904 180.421 54.7904H181.797ZM191.376 40.9024C193.787 40.9024 195.536 41.3504 196.624 42.2464C197.712 43.1211 198.256 44.4971 198.256 46.3744V57.8624H194.352V54.9184H194.192C194.107 55.3024 193.851 55.7504 193.424 56.2624C192.997 56.7744 192.379 57.2224 191.568 57.6064C190.757 57.9904 189.787 58.1824 188.656 58.1824C187.141 58.1824 185.872 57.8091 184.848 57.0624C183.824 56.2944 183.312 55.1424 183.312 53.6064C183.312 52.0704 183.824 50.9611 184.848 50.2784C185.872 49.5958 187.259 49.1371 189.008 48.9024L192.272 48.4544C193.019 48.3691 193.52 48.2198 193.776 48.0064C194.032 47.7718 194.16 47.4091 194.16 46.9184V46.5664C194.16 45.5851 193.904 44.9024 193.392 44.5184C192.901 44.1344 192.176 43.9424 191.216 43.9424C189.168 43.9424 188.144 44.7318 188.144 46.3104V46.5024L184.272 46.5664V45.9264C184.272 42.5771 186.64 40.9024 191.376 40.9024ZM194.16 50.0544C194.075 50.2251 193.893 50.3531 193.616 50.4384C193.36 50.5238 192.944 50.6091 192.368 50.6944L190 51.0144C189.104 51.1638 188.432 51.3984 187.984 51.7184C187.557 52.0384 187.344 52.4971 187.344 53.0944C187.344 53.7131 187.568 54.2144 188.016 54.5984C188.464 54.9824 189.157 55.1744 190.096 55.1744C190.971 55.1744 191.707 55.0144 192.304 54.6944C192.923 54.3531 193.381 53.9478 193.68 53.4784C194 53.0091 194.16 52.5611 194.16 52.1344V50.0544ZM209.006 58.1824C207.555 58.1824 206.2 57.8838 204.942 57.2864C203.683 56.6678 202.67 55.7184 201.902 54.4384C201.134 53.1371 200.75 51.5158 200.75 49.5744C200.75 47.6118 201.134 45.9798 201.902 44.6784C202.67 43.3771 203.683 42.4278 204.942 41.8304C206.2 41.2118 207.555 40.9024 209.006 40.9024C210.84 40.9024 212.472 41.3931 213.902 42.3744C215.352 43.3558 216.216 45.0518 216.494 47.4624H212.846C212.654 46.3958 212.216 45.6064 211.534 45.0944C210.851 44.5824 209.998 44.3264 208.974 44.3264C207.587 44.3264 206.51 44.7958 205.742 45.7344C204.974 46.6731 204.59 47.9531 204.59 49.5744C204.59 51.1744 204.974 52.4438 205.742 53.3824C206.51 54.2998 207.587 54.7584 208.974 54.7584C209.998 54.7584 210.851 54.5024 211.534 53.9904C212.216 53.4571 212.654 52.6571 212.846 51.5904H216.494C216.259 54.0011 215.416 55.7078 213.966 56.7104C212.515 57.6918 210.862 58.1824 209.006 58.1824ZM228.391 54.7904V57.9904C227.836 58.0544 227.036 58.0864 225.991 58.0864C224.369 58.0864 223.1 57.6918 222.183 56.9024C221.287 56.1131 220.839 54.8758 220.839 53.1904V44.3904H218.055V41.2224H220.839V36.9664H224.935V41.2224H228.199V44.3904H224.935V52.5504C224.935 53.2971 225.095 53.8624 225.415 54.2464C225.735 54.6091 226.268 54.7904 227.015 54.7904H228.391ZM253.725 41.2224V57.8624H249.629V54.4384H249.469C249.341 54.9931 249.064 55.5584 248.637 56.1344C248.21 56.7104 247.602 57.2011 246.813 57.6064C246.045 57.9904 245.117 58.1824 244.029 58.1824C242.322 58.1824 240.925 57.6384 239.837 56.5504C238.77 55.4624 238.237 53.8411 238.237 51.6864V41.2224H242.333V50.7264C242.333 53.4358 243.474 54.7904 245.757 54.7904C246.909 54.7904 247.837 54.4491 248.541 53.7664C249.266 53.0624 249.629 52.0491 249.629 50.7264V41.2224H253.725ZM263.255 58.1824C261.058 58.1824 259.33 57.7131 258.071 56.7744C256.834 55.8358 256.205 54.4491 256.183 52.6144H259.831C260.045 54.2784 261.207 55.1104 263.319 55.1104C264.237 55.1104 264.962 54.9398 265.495 54.5984C266.05 54.2571 266.327 53.7451 266.327 53.0624C266.327 52.5718 266.167 52.1984 265.847 51.9424C265.549 51.6651 265.058 51.4411 264.375 51.2704L261.303 50.5984C258.21 49.8944 256.663 48.3051 256.663 45.8304C256.663 44.2731 257.261 43.0678 258.455 42.2144C259.65 41.3398 261.261 40.9024 263.287 40.9024C265.399 40.9024 267.021 41.3824 268.151 42.3424C269.282 43.3024 269.869 44.6678 269.911 46.4384H266.519C266.327 44.7958 265.293 43.9744 263.415 43.9744C262.541 43.9744 261.847 44.1344 261.335 44.4544C260.823 44.7744 260.567 45.2118 260.567 45.7664C260.567 46.2358 260.738 46.6304 261.079 46.9504C261.442 47.2491 261.954 47.4624 262.615 47.5904L265.783 48.2944C267.277 48.6358 268.439 49.1691 269.271 49.8944C270.125 50.5984 270.551 51.6224 270.551 52.9664C270.551 54.7158 269.858 56.0278 268.471 56.9024C267.106 57.7558 265.367 58.1824 263.255 58.1824Z" fill="#4381A8"/>
</g>
</g>
<defs>
<filter id="filter0_d_30_88" x="-6.5" y="-1.5" width="397" height="113.182" filterUnits="userSpaceOnUse" color-interpolation-filters="sRGB">
<feFlood flood-opacity="0" result="BackgroundImageFix"/>
<feColorMatrix in="SourceAlpha" type="matrix" values="0 0 0 0 0 0 0 0 0 0 0 0 0 0 0 0 0 0 127 0" result="hardAlpha"/>
<feOffset dy="5"/>
<feGaussianBlur stdDeviation="3.25"/>
<feComposite in2="hardAlpha" operator="out"/>
<feColorMatrix type="matrix" values="0 0 0 0 0 0 0 0 0 0 0 0 0 0 0 0 0 0 0.25 0"/>
<feBlend mode="normal" in2="BackgroundImageFix" result="effect1_dropShadow_30_88"/>
<feBlend mode="normal" in="SourceGraphic" in2="effect1_dropShadow_30_88" result="shape"/>
</filter>
<clipPath id="clip0_30_88">
<rect width="384" height="100.182" fill="white"/>
</clipPath>
</defs>
</svg>
