<svg width="350" height="90" viewBox="0 0 350 90" fill="none" xmlns="http://www.w3.org/2000/svg">
<g clip-path="url(#clip0_15_73)">
<g filter="url(#filter0_d_15_73)">
<rect width="350" height="90" rx="10.3275" fill="#00A693" shape-rendering="crispEdges"/>
<path d="M62.2108 53L53.9868 30.6H58.4028L64.7708 48.68H65.0268L71.3628 30.6H75.8108L67.5868 53H62.2108ZM80.3073 34.024C79.0593 34.024 77.9713 33.032 77.9713 31.784C77.9713 30.504 79.0593 29.512 80.3073 29.512C81.5233 29.512 82.6113 30.504 82.6113 31.784C82.6113 33.032 81.5233 34.024 80.3073 34.024ZM78.2593 53V36.36H82.3553V53H78.2593ZM100.958 44.648C100.958 45.16 100.927 45.416 100.863 45.736H88.8625C89.1185 48.968 90.7505 50.312 93.4705 50.312C95.4865 50.312 96.5425 49.48 97.0865 47.848H100.735C99.8385 51.624 96.9585 53.416 93.2145 53.416C88.8945 53.416 84.9905 50.952 84.9905 44.744C84.9905 38.536 88.7985 36.04 93.1505 36.04C97.4705 36.04 100.958 38.472 100.958 44.648ZM88.8625 43.464H97.0865C96.9905 40.936 95.7745 39.176 93.0865 39.176C90.6225 39.176 89.1185 40.648 88.8625 43.464ZM106.339 53L101.827 36.36H105.699L108.803 49H108.931L112.547 36.36H116.099L119.715 49H119.843L122.947 36.36H126.851L122.307 53H117.699L114.339 41.8L110.947 53H106.339ZM143.901 33.224C142.397 33.224 141.853 33.992 141.853 35.432V36.36H145.117V39.528H141.853V53H137.757V39.528H135.421V36.36H137.757V34.952C137.757 31.432 139.837 30.088 142.909 30.088H145.213V33.224H143.901ZM153.711 36.04C158.575 36.04 160.591 37.8 160.591 41.512V53H156.687V50.056H156.527C156.303 50.952 154.735 53.32 150.991 53.32C148.207 53.32 145.647 52.008 145.647 48.744C145.647 45.352 148.399 44.424 151.343 44.04L154.607 43.592C156.143 43.4 156.495 43.016 156.495 42.056V41.704C156.495 39.624 155.311 39.08 153.551 39.08C151.823 39.08 150.479 39.624 150.479 41.448V41.64L146.607 41.704V41.064C146.607 37.832 148.815 36.04 153.711 36.04ZM156.495 47.272V45.192C156.303 45.544 155.695 45.672 154.703 45.832L152.335 46.152C150.607 46.44 149.679 47.016 149.679 48.232C149.679 49.384 150.447 50.312 152.431 50.312C155.247 50.312 156.495 48.424 156.495 47.272ZM168.096 53L161.952 36.36H166.112L170.592 49.096H170.752L175.232 36.36H179.424L173.248 53H168.096ZM188.059 53.32C183.867 53.32 179.803 50.696 179.803 44.68C179.803 38.664 183.867 36.04 188.059 36.04C192.219 36.04 196.315 38.664 196.315 44.68C196.315 50.696 192.219 53.32 188.059 53.32ZM188.059 49.896C190.459 49.896 192.443 48.296 192.443 44.68C192.443 41.064 190.459 39.464 188.059 39.464C185.627 39.464 183.643 41.064 183.643 44.68C183.643 48.296 185.627 49.896 188.059 49.896ZM208.067 36.232C208.451 36.232 208.899 36.264 209.347 36.392V39.848C208.867 39.784 208.483 39.752 208.067 39.752C205.315 39.752 203.043 41.352 203.043 45.256V53H198.947V36.36H203.043V40.328H203.139C203.683 38.088 205.251 36.232 208.067 36.232ZM213.714 34.024C212.466 34.024 211.378 33.032 211.378 31.784C211.378 30.504 212.466 29.512 213.714 29.512C214.93 29.512 216.018 30.504 216.018 31.784C216.018 33.032 214.93 34.024 213.714 34.024ZM211.666 53V36.36H215.762V53H211.666ZM227.037 49.928H228.413V53.128C227.581 53.224 226.813 53.224 226.013 53.224C222.941 53.224 220.861 51.848 220.861 48.328V39.528H218.077V36.36H220.861V32.104H224.957V36.36H228.221V39.528H224.957V47.688C224.957 49.128 225.469 49.928 227.037 49.928ZM245.896 44.648C245.896 45.16 245.864 45.416 245.8 45.736H233.8C234.056 48.968 235.688 50.312 238.408 50.312C240.424 50.312 241.48 49.48 242.024 47.848H245.672C244.776 51.624 241.896 53.416 238.152 53.416C233.832 53.416 229.928 50.952 229.928 44.744C229.928 38.536 233.736 36.04 238.088 36.04C242.408 36.04 245.896 38.472 245.896 44.648ZM233.8 43.464H242.024C241.928 40.936 240.712 39.176 238.024 39.176C235.56 39.176 234.056 40.648 233.8 43.464ZM255.884 53V30.6H259.98V53H255.884ZM265.464 34.024C264.216 34.024 263.128 33.032 263.128 31.784C263.128 30.504 264.216 29.512 265.464 29.512C266.68 29.512 267.768 30.504 267.768 31.784C267.768 33.032 266.68 34.024 265.464 34.024ZM263.416 53V36.36H267.512V53H263.416ZM277.059 53.32C272.771 53.32 270.019 51.496 269.987 47.752H273.635C273.859 49.512 275.171 50.248 277.123 50.248C278.883 50.248 280.131 49.608 280.131 48.2C280.131 47.176 279.459 46.728 278.179 46.408L275.107 45.736C271.747 44.968 270.467 43.208 270.467 40.968C270.467 37.8 273.091 36.04 277.091 36.04C281.315 36.04 283.651 38.056 283.715 41.576H280.323C280.099 39.752 278.915 39.112 277.219 39.112C275.459 39.112 274.371 39.784 274.371 40.904C274.371 41.832 275.107 42.472 276.419 42.728L279.587 43.432C282.243 44.04 284.355 45.192 284.355 48.104C284.355 51.816 280.931 53.32 277.059 53.32ZM294.662 49.928H296.038V53.128C295.206 53.224 294.438 53.224 293.638 53.224C290.566 53.224 288.486 51.848 288.486 48.328V39.528H285.702V36.36H288.486V32.104H292.582V36.36H295.846V39.528H292.582V47.688C292.582 49.128 293.094 49.928 294.662 49.928Z" fill="white"/>
</g>
</g>
<defs>
<filter id="filter0_d_15_73" x="-6.5" y="-1.5" width="363" height="103" filterUnits="userSpaceOnUse" color-interpolation-filters="sRGB">
<feFlood flood-opacity="0" result="BackgroundImageFix"/>
<feColorMatrix in="SourceAlpha" type="matrix" values="0 0 0 0 0 0 0 0 0 0 0 0 0 0 0 0 0 0 127 0" result="hardAlpha"/>
<feOffset dy="5"/>
<feGaussianBlur stdDeviation="3.25"/>
<feComposite in2="hardAlpha" operator="out"/>
<feColorMatrix type="matrix" values="0 0 0 0 0 0 0 0 0 0 0 0 0 0 0 0 0 0 0.25 0"/>
<feBlend mode="normal" in2="BackgroundImageFix" result="effect1_dropShadow_15_73"/>
<feBlend mode="normal" in="SourceGraphic" in2="effect1_dropShadow_15_73" result="shape"/>
</filter>
<clipPath id="clip0_15_73">
<rect width="350" height="90" fill="white"/>
</clipPath>
</defs>
</svg>
