<svg width="350" height="90" viewBox="0 0 350 90" fill="none" xmlns="http://www.w3.org/2000/svg">
<g clip-path="url(#clip0_15_74)">
<g filter="url(#filter0_d_15_74)">
<rect width="350" height="90" rx="10.3275" fill="#00A693" shape-rendering="crispEdges"/>
<path d="M88.228 53V30.6H93.476L100.004 47.336L106.532 30.6H111.78V53H107.588V37.96H107.428L101.604 53H98.404L92.548 37.96H92.42V53H88.228ZM115.741 59.336V55.848C118.813 56.264 119.741 55.112 120.221 53.928C120.573 53.064 120.573 52.552 120.221 51.688L114.077 36.36H118.269L122.525 47.88L126.813 36.36H131.037L124.125 53.448C122.173 58.248 120.093 59.816 115.741 59.336ZM156.984 53L155.384 48.424H145.624L144.024 53H139.608L147.832 30.6H153.208L161.432 53H156.984ZM146.744 45.288H154.296L150.648 34.92H150.392L146.744 45.288ZM170.215 53.32C166.087 53.32 161.959 50.856 161.959 44.712C161.959 38.504 166.087 36.04 170.215 36.04C173.159 36.04 177.095 37.224 177.703 42.6H174.055C173.639 40.36 172.103 39.464 170.183 39.464C167.367 39.464 165.799 41.512 165.799 44.712C165.799 47.848 167.367 49.896 170.183 49.896C172.167 49.896 173.639 48.936 174.055 46.728H177.703C177.191 52.072 173.191 53.32 170.215 53.32ZM187.684 53.32C183.556 53.32 179.428 50.856 179.428 44.712C179.428 38.504 183.556 36.04 187.684 36.04C190.628 36.04 194.564 37.224 195.172 42.6H191.524C191.108 40.36 189.572 39.464 187.652 39.464C184.836 39.464 183.268 41.512 183.268 44.712C183.268 47.848 184.836 49.896 187.652 49.896C189.636 49.896 191.108 48.936 191.524 46.728H195.172C194.66 52.072 190.66 53.32 187.684 53.32ZM205.153 53.32C200.961 53.32 196.897 50.696 196.897 44.68C196.897 38.664 200.961 36.04 205.153 36.04C209.313 36.04 213.409 38.664 213.409 44.68C213.409 50.696 209.313 53.32 205.153 53.32ZM205.153 49.896C207.553 49.896 209.537 48.296 209.537 44.68C209.537 41.064 207.553 39.464 205.153 39.464C202.721 39.464 200.737 41.064 200.737 44.68C200.737 48.296 202.721 49.896 205.153 49.896ZM227.433 36.36H231.529V53H227.433V49.576H227.273C226.953 51.016 225.353 53.32 221.833 53.32C218.601 53.32 216.041 51.336 216.041 46.824V36.36H220.137V45.864C220.137 48.584 221.321 49.928 223.561 49.928C225.769 49.928 227.433 48.584 227.433 45.864V36.36ZM244.611 36.04C247.875 36.04 250.403 38.024 250.403 42.536V53H246.307V43.496C246.307 40.776 245.123 39.432 242.915 39.432C240.675 39.432 239.043 40.776 239.043 43.496V53H234.947V36.36H239.043V39.784H239.171C239.491 38.344 241.091 36.04 244.611 36.04ZM261.381 49.928H262.757V53.128C261.925 53.224 261.157 53.224 260.357 53.224C257.285 53.224 255.205 51.848 255.205 48.328V39.528H252.421V36.36H255.205V32.104H259.301V36.36H262.565V39.528H259.301V47.688C259.301 49.128 259.812 49.928 261.381 49.928Z" fill="white"/>
</g>
</g>
<defs>
<filter id="filter0_d_15_74" x="-6.5" y="-1.5" width="363" height="103" filterUnits="userSpaceOnUse" color-interpolation-filters="sRGB">
<feFlood flood-opacity="0" result="BackgroundImageFix"/>
<feColorMatrix in="SourceAlpha" type="matrix" values="0 0 0 0 0 0 0 0 0 0 0 0 0 0 0 0 0 0 127 0" result="hardAlpha"/>
<feOffset dy="5"/>
<feGaussianBlur stdDeviation="3.25"/>
<feComposite in2="hardAlpha" operator="out"/>
<feColorMatrix type="matrix" values="0 0 0 0 0 0 0 0 0 0 0 0 0 0 0 0 0 0 0.25 0"/>
<feBlend mode="normal" in2="BackgroundImageFix" result="effect1_dropShadow_15_74"/>
<feBlend mode="normal" in="SourceGraphic" in2="effect1_dropShadow_15_74" result="shape"/>
</filter>
<clipPath id="clip0_15_74">
<rect width="350" height="90" fill="white"/>
</clipPath>
</defs>
</svg>
