<svg width="384" height="101" viewBox="0 0 384 101" fill="none" xmlns="http://www.w3.org/2000/svg">
<g clip-path="url(#clip0_30_87)">
<g filter="url(#filter0_d_30_87)">
<rect width="384" height="100.182" rx="10.3275" fill="#00A693"/>
<path d="M137.583 58.1824C135.386 58.1824 133.487 57.7344 131.887 56.8384C130.309 55.9211 129.093 54.6091 128.239 52.9024C127.407 51.1744 126.991 49.1051 126.991 46.6944C126.991 44.2838 127.429 42.2144 128.303 40.4864C129.178 38.7584 130.405 37.4464 131.983 36.5504C133.562 35.6331 135.386 35.1744 137.455 35.1744C139.823 35.1744 141.818 35.7718 143.439 36.9664C145.082 38.1398 146.106 39.8784 146.511 42.1824H142.319C141.957 40.9878 141.338 40.1344 140.463 39.6224C139.589 39.0891 138.575 38.8224 137.423 38.8224C135.461 38.8224 133.946 39.5264 132.879 40.9344C131.834 42.3424 131.311 44.2411 131.311 46.6304C131.311 49.0198 131.834 50.9398 132.879 52.3904C133.946 53.8198 135.471 54.5344 137.455 54.5344C139.013 54.5344 140.293 54.0971 141.295 53.2224C142.319 52.3264 142.831 50.9718 142.831 49.1584H138.159V45.7664H147.023V47.4944C147.023 51.0571 146.213 53.7344 144.591 55.5264C142.991 57.2971 140.655 58.1824 137.583 58.1824ZM157.584 58.1824C156.112 58.1824 154.746 57.8731 153.488 57.2544C152.25 56.6144 151.248 55.6544 150.48 54.3744C149.712 53.0731 149.328 51.4624 149.328 49.5424C149.328 47.6224 149.712 46.0224 150.48 44.7424C151.248 43.4411 152.25 42.4811 153.488 41.8624C154.746 41.2224 156.112 40.9024 157.584 40.9024C159.034 40.9024 160.389 41.2224 161.648 41.8624C162.906 42.4811 163.92 43.4411 164.688 44.7424C165.456 46.0224 165.84 47.6224 165.84 49.5424C165.84 51.4624 165.456 53.0731 164.688 54.3744C163.92 55.6544 162.906 56.6144 161.648 57.2544C160.389 57.8731 159.034 58.1824 157.584 58.1824ZM157.584 54.7584C158.864 54.7584 159.909 54.3211 160.72 53.4464C161.552 52.5718 161.968 51.2704 161.968 49.5424C161.968 47.8144 161.552 46.5131 160.72 45.6384C159.909 44.7638 158.864 44.3264 157.584 44.3264C156.282 44.3264 155.216 44.7638 154.384 45.6384C153.573 46.5131 153.168 47.8144 153.168 49.5424C153.168 51.2704 153.573 52.5718 154.384 53.4464C155.216 54.3211 156.282 54.7584 157.584 54.7584ZM185.51 40.9024C187.238 40.9024 188.636 41.4464 189.702 42.5344C190.769 43.6224 191.302 45.2438 191.302 47.3984V57.8624H187.206V48.3584C187.206 47.0144 186.918 46.0011 186.342 45.3184C185.766 44.6358 184.924 44.2944 183.814 44.2944C182.641 44.2944 181.702 44.6464 180.998 45.3504C180.294 46.0331 179.942 47.0358 179.942 48.3584V57.8624H175.846V35.4624H179.942V44.6464H180.07C180.198 44.0918 180.476 43.5264 180.902 42.9504C181.329 42.3744 181.926 41.8944 182.694 41.5104C183.484 41.1051 184.422 40.9024 185.51 40.9024ZM202.209 58.1824C200.737 58.1824 199.371 57.8731 198.113 57.2544C196.875 56.6144 195.873 55.6544 195.105 54.3744C194.337 53.0731 193.953 51.4624 193.953 49.5424C193.953 47.6224 194.337 46.0224 195.105 44.7424C195.873 43.4411 196.875 42.4811 198.113 41.8624C199.371 41.2224 200.737 40.9024 202.209 40.9024C203.659 40.9024 205.014 41.2224 206.273 41.8624C207.531 42.4811 208.545 43.4411 209.313 44.7424C210.081 46.0224 210.465 47.6224 210.465 49.5424C210.465 51.4624 210.081 53.0731 209.313 54.3744C208.545 55.6544 207.531 56.6144 206.273 57.2544C205.014 57.8731 203.659 58.1824 202.209 58.1824ZM202.209 54.7584C203.489 54.7584 204.534 54.3211 205.345 53.4464C206.177 52.5718 206.593 51.2704 206.593 49.5424C206.593 47.8144 206.177 46.5131 205.345 45.6384C204.534 44.7638 203.489 44.3264 202.209 44.3264C200.907 44.3264 199.841 44.7638 199.009 45.6384C198.198 46.5131 197.793 47.8144 197.793 49.5424C197.793 51.2704 198.198 52.5718 199.009 53.4464C199.841 54.3211 200.907 54.7584 202.209 54.7584ZM232.744 40.9024C234.43 40.9024 235.784 41.4464 236.808 42.5344C237.832 43.6224 238.344 45.2438 238.344 47.3984V57.8624H234.248V48.3584C234.248 47.0144 233.982 46.0011 233.448 45.3184C232.915 44.6358 232.147 44.2944 231.144 44.2944C230.12 44.2944 229.299 44.6464 228.68 45.3504C228.062 46.0331 227.752 47.0358 227.752 48.3584V57.8624H223.656V48.3584C223.656 47.0144 223.39 46.0011 222.856 45.3184C222.344 44.6358 221.587 44.2944 220.584 44.2944C219.56 44.2944 218.739 44.6464 218.12 45.3504C217.502 46.0331 217.192 47.0358 217.192 48.3584V57.8624H213.096V41.2224H217.192V44.6464H217.32C217.406 44.1131 217.662 43.5584 218.088 42.9824C218.515 42.4064 219.08 41.9158 219.784 41.5104C220.51 41.1051 221.352 40.9024 222.312 40.9024C223.528 40.9024 224.584 41.2224 225.48 41.8624C226.398 42.5024 227.038 43.4624 227.4 44.7424C227.528 44.1878 227.806 43.6224 228.232 43.0464C228.68 42.4491 229.288 41.9478 230.056 41.5424C230.824 41.1158 231.72 40.9024 232.744 40.9024ZM256.952 49.5104C256.952 49.9158 256.92 50.2784 256.856 50.5984H244.856C244.984 52.1771 245.432 53.3398 246.2 54.0864C246.989 54.8118 248.077 55.1744 249.464 55.1744C250.445 55.1744 251.224 54.9718 251.8 54.5664C252.376 54.1611 252.803 53.5424 253.08 52.7104H256.728C256.301 54.5451 255.416 55.9318 254.072 56.8704C252.749 57.8091 251.128 58.2784 249.208 58.2784C247.693 58.2784 246.317 57.9798 245.08 57.3824C243.843 56.7638 242.851 55.8144 242.104 54.5344C241.357 53.2331 240.984 51.5904 240.984 49.6064C240.984 47.6224 241.347 45.9798 242.072 44.6784C242.819 43.3771 243.8 42.4278 245.016 41.8304C246.253 41.2118 247.629 40.9024 249.144 40.9024C251.469 40.9024 253.347 41.6064 254.776 43.0144C256.227 44.4224 256.952 46.5878 256.952 49.5104ZM253.08 48.3264C253.037 47.0038 252.685 45.9584 252.024 45.1904C251.363 44.4224 250.381 44.0384 249.08 44.0384C247.843 44.0384 246.861 44.4011 246.136 45.1264C245.411 45.8518 244.984 46.9184 244.856 48.3264H253.08Z" fill="white"/>
</g>
</g>
<defs>
<filter id="filter0_d_30_87" x="-6.5" y="-1.5" width="397" height="113.182" filterUnits="userSpaceOnUse" color-interpolation-filters="sRGB">
<feFlood flood-opacity="0" result="BackgroundImageFix"/>
<feColorMatrix in="SourceAlpha" type="matrix" values="0 0 0 0 0 0 0 0 0 0 0 0 0 0 0 0 0 0 127 0" result="hardAlpha"/>
<feOffset dy="5"/>
<feGaussianBlur stdDeviation="3.25"/>
<feComposite in2="hardAlpha" operator="out"/>
<feColorMatrix type="matrix" values="0 0 0 0 0 0 0 0 0 0 0 0 0 0 0 0 0 0 0.25 0"/>
<feBlend mode="normal" in2="BackgroundImageFix" result="effect1_dropShadow_30_87"/>
<feBlend mode="normal" in="SourceGraphic" in2="effect1_dropShadow_30_87" result="shape"/>
</filter>
<clipPath id="clip0_30_87">
<rect width="384" height="100.182" fill="white"/>
</clipPath>
</defs>
</svg>
