<svg width="32" height="27" viewBox="0 0 32 27" fill="none" xmlns="http://www.w3.org/2000/svg">
<g clip-path="url(#clip0_14_57)">
<path d="M0.878052 2.25C0.878052 1.65326 1.08218 1.08097 1.44553 0.65901C1.80888 0.237053 2.30169 0 2.81555 0H29.9406C30.4544 0 30.9472 0.237053 31.3106 0.65901C31.6739 1.08097 31.8781 1.65326 31.8781 2.25C31.8781 2.84674 31.6739 3.41903 31.3106 3.84099C30.9472 4.26295 30.4544 4.5 29.9406 4.5H2.81555C2.30169 4.5 1.80888 4.26295 1.44553 3.84099C1.08218 3.41903 0.878052 2.84674 0.878052 2.25ZM0.878052 13.5C0.878052 12.9033 1.08218 12.331 1.44553 11.909C1.80888 11.4871 2.30169 11.25 2.81555 11.25H29.9406C30.4544 11.25 30.9472 11.4871 31.3106 11.909C31.6739 12.331 31.8781 12.9033 31.8781 13.5C31.8781 14.0967 31.6739 14.669 31.3106 15.091C30.9472 15.5129 30.4544 15.75 29.9406 15.75H2.81555C2.30169 15.75 1.80888 15.5129 1.44553 15.091C1.08218 14.669 0.878052 14.0967 0.878052 13.5ZM0.878052 24.75C0.878052 24.1533 1.08218 23.581 1.44553 23.159C1.80888 22.7371 2.30169 22.5 2.81555 22.5H29.9406C30.4544 22.5 30.9472 22.7371 31.3106 23.159C31.6739 23.581 31.8781 24.1533 31.8781 24.75C31.8781 25.3467 31.6739 25.919 31.3106 26.341C30.9472 26.7629 30.4544 27 29.9406 27H2.81555C2.30169 27 1.80888 26.7629 1.44553 26.341C1.08218 25.919 0.878052 25.3467 0.878052 24.75Z" fill="#2E80B2"/>
</g>
<defs>
<clipPath id="clip0_14_57">
<rect width="31" height="27" fill="white" transform="translate(0.878052)"/>
</clipPath>
</defs>
</svg>
