<svg width="350" height="90" viewBox="0 0 350 90" fill="none" xmlns="http://www.w3.org/2000/svg">
<g clip-path="url(#clip0_15_72)">
<g filter="url(#filter0_d_15_72)">
<rect width="350" height="90" rx="10.3275" fill="#00A693" shape-rendering="crispEdges"/>
<path d="M48.1838 53.32C41.5598 53.32 37.5918 49.128 37.5918 41.832C37.5918 34.472 41.8478 30.312 48.0558 30.312C52.5998 30.312 56.2798 32.52 57.1118 37.32H52.9198C52.1198 34.76 50.0718 33.96 48.0238 33.96C43.9918 33.96 41.9118 37.128 41.9118 41.768C41.9118 46.408 43.9598 49.672 48.0558 49.672C50.9038 49.672 53.4318 48.168 53.4318 44.296H48.7598V40.904H57.6238V42.632C57.6238 49.832 54.2638 53.32 48.1838 53.32ZM75.896 44.648C75.896 45.16 75.864 45.416 75.8 45.736H63.8C64.056 48.968 65.688 50.312 68.408 50.312C70.424 50.312 71.48 49.48 72.024 47.848H75.672C74.776 51.624 71.896 53.416 68.152 53.416C63.832 53.416 59.928 50.952 59.928 44.744C59.928 38.536 63.736 36.04 68.088 36.04C72.408 36.04 75.896 38.472 75.896 44.648ZM63.8 43.464H72.024C71.928 40.936 70.712 39.176 68.024 39.176C65.56 39.176 64.056 40.648 63.8 43.464ZM88.1733 36.04C91.4373 36.04 93.9653 38.024 93.9653 42.536V53H89.8693V43.496C89.8693 40.776 88.6853 39.432 86.4773 39.432C84.2373 39.432 82.6053 40.776 82.6053 43.496V53H78.5093V36.36H82.6053V39.784H82.7333C83.0533 38.344 84.6533 36.04 88.1733 36.04ZM112.583 44.648C112.583 45.16 112.552 45.416 112.488 45.736H100.488C100.744 48.968 102.376 50.312 105.095 50.312C107.112 50.312 108.168 49.48 108.712 47.848H112.36C111.464 51.624 108.584 53.416 104.84 53.416C100.52 53.416 96.6155 50.952 96.6155 44.744C96.6155 38.536 100.424 36.04 104.776 36.04C109.096 36.04 112.583 38.472 112.583 44.648ZM100.488 43.464H108.712C108.616 40.936 107.4 39.176 104.712 39.176C102.248 39.176 100.744 40.648 100.488 43.464ZM124.317 36.232C124.701 36.232 125.149 36.264 125.597 36.392V39.848C125.117 39.784 124.733 39.752 124.317 39.752C121.565 39.752 119.293 41.352 119.293 45.256V53H115.197V36.36H119.293V40.328H119.389C119.933 38.088 121.501 36.232 124.317 36.232ZM134.367 36.04C139.231 36.04 141.247 37.8 141.247 41.512V53H137.343V50.056H137.183C136.959 50.952 135.391 53.32 131.647 53.32C128.863 53.32 126.303 52.008 126.303 48.744C126.303 45.352 129.055 44.424 131.999 44.04L135.263 43.592C136.799 43.4 137.151 43.016 137.151 42.056V41.704C137.151 39.624 135.967 39.08 134.207 39.08C132.479 39.08 131.135 39.624 131.135 41.448V41.64L127.263 41.704V41.064C127.263 37.832 129.471 36.04 134.367 36.04ZM137.151 47.272V45.192C136.959 45.544 136.351 45.672 135.359 45.832L132.991 46.152C131.263 46.44 130.335 47.016 130.335 48.232C130.335 49.384 131.103 50.312 133.087 50.312C135.903 50.312 137.151 48.424 137.151 47.272ZM152.068 49.928H153.444V53.128C152.612 53.224 151.844 53.224 151.044 53.224C147.972 53.224 145.892 51.848 145.892 48.328V39.528H143.108V36.36H145.892V32.104H149.988V36.36H153.252V39.528H149.988V47.688C149.988 49.128 150.5 49.928 152.068 49.928ZM170.927 44.648C170.927 45.16 170.895 45.416 170.831 45.736H158.831C159.087 48.968 160.719 50.312 163.439 50.312C165.455 50.312 166.511 49.48 167.055 47.848H170.703C169.807 51.624 166.927 53.416 163.183 53.416C158.863 53.416 154.959 50.952 154.959 44.744C154.959 38.536 158.767 36.04 163.119 36.04C167.439 36.04 170.927 38.472 170.927 44.648ZM158.831 43.464H167.055C166.959 40.936 165.743 39.176 163.055 39.176C160.591 39.176 159.087 40.648 158.831 43.464ZM188.18 36.04C193.044 36.04 195.06 37.8 195.06 41.512V53H191.156V50.056H190.996C190.772 50.952 189.204 53.32 185.46 53.32C182.676 53.32 180.116 52.008 180.116 48.744C180.116 45.352 182.868 44.424 185.812 44.04L189.076 43.592C190.612 43.4 190.964 43.016 190.964 42.056V41.704C190.964 39.624 189.78 39.08 188.02 39.08C186.292 39.08 184.948 39.624 184.948 41.448V41.64L181.076 41.704V41.064C181.076 37.832 183.284 36.04 188.18 36.04ZM190.964 47.272V45.192C190.772 45.544 190.164 45.672 189.172 45.832L186.804 46.152C185.076 46.44 184.148 47.016 184.148 48.232C184.148 49.384 184.916 50.312 186.9 50.312C189.716 50.312 190.964 48.424 190.964 47.272ZM208.33 36.04C211.594 36.04 214.122 38.024 214.122 42.536V53H210.026V43.496C210.026 40.776 208.842 39.432 206.634 39.432C204.394 39.432 202.762 40.776 202.762 43.496V53H198.666V36.36H202.762V39.784H202.89C203.21 38.344 204.81 36.04 208.33 36.04ZM226.995 34.024C225.747 34.024 224.659 33.032 224.659 31.784C224.659 30.504 225.747 29.512 226.995 29.512C228.211 29.512 229.299 30.504 229.299 31.784C229.299 33.032 228.211 34.024 226.995 34.024ZM224.947 53V36.36H229.043V53H224.947ZM252.126 36.04C255.326 36.04 257.726 38.024 257.726 42.536V53H253.63V43.496C253.63 40.776 252.51 39.432 250.526 39.432C248.574 39.432 247.134 40.776 247.134 43.496V53H243.038V43.496C243.038 40.776 241.95 39.432 239.966 39.432C238.014 39.432 236.574 40.776 236.574 43.496V53H232.478V36.36H236.574V39.784H236.702C236.958 38.344 238.622 36.04 241.694 36.04C244.03 36.04 246.014 37.224 246.782 39.88C247.102 38.408 248.83 36.04 252.126 36.04ZM268.43 36.04C273.294 36.04 275.31 37.8 275.31 41.512V53H271.406V50.056H271.246C271.022 50.952 269.454 53.32 265.71 53.32C262.926 53.32 260.366 52.008 260.366 48.744C260.366 45.352 263.118 44.424 266.062 44.04L269.326 43.592C270.862 43.4 271.214 43.016 271.214 42.056V41.704C271.214 39.624 270.03 39.08 268.27 39.08C266.542 39.08 265.198 39.624 265.198 41.448V41.64L261.326 41.704V41.064C261.326 37.832 263.534 36.04 268.43 36.04ZM271.214 47.272V45.192C271.022 45.544 270.414 45.672 269.422 45.832L267.054 46.152C265.326 46.44 264.398 47.016 264.398 48.232C264.398 49.384 265.166 50.312 267.15 50.312C269.966 50.312 271.214 48.424 271.214 47.272ZM290.091 36.36H294.187V52.488C294.187 58.472 289.195 59.688 285.771 59.688C282.699 59.688 278.219 58.728 278.187 54.12H281.803C281.899 55.816 283.851 56.52 285.675 56.52C288.107 56.52 290.091 55.336 290.091 52.488V50.088C289.131 51.56 287.275 52.584 284.907 52.584C281.419 52.584 277.803 50.312 277.803 44.328C277.803 38.344 281.483 36.04 284.907 36.04C287.275 36.04 289.131 37.064 290.091 38.536V36.36ZM285.963 49.192C288.235 49.192 290.251 47.624 290.251 44.328C290.251 41 288.235 39.464 285.963 39.464C283.691 39.464 281.643 41 281.643 44.328C281.643 47.624 283.691 49.192 285.963 49.192ZM312.771 44.648C312.771 45.16 312.739 45.416 312.675 45.736H300.675C300.931 48.968 302.563 50.312 305.283 50.312C307.299 50.312 308.355 49.48 308.899 47.848H312.547C311.651 51.624 308.771 53.416 305.027 53.416C300.707 53.416 296.803 50.952 296.803 44.744C296.803 38.536 300.611 36.04 304.963 36.04C309.283 36.04 312.771 38.472 312.771 44.648ZM300.675 43.464H308.899C308.803 40.936 307.587 39.176 304.899 39.176C302.435 39.176 300.931 40.648 300.675 43.464Z" fill="white"/>
</g>
</g>
<defs>
<filter id="filter0_d_15_72" x="-6.5" y="-1.5" width="363" height="103" filterUnits="userSpaceOnUse" color-interpolation-filters="sRGB">
<feFlood flood-opacity="0" result="BackgroundImageFix"/>
<feColorMatrix in="SourceAlpha" type="matrix" values="0 0 0 0 0 0 0 0 0 0 0 0 0 0 0 0 0 0 127 0" result="hardAlpha"/>
<feOffset dy="5"/>
<feGaussianBlur stdDeviation="3.25"/>
<feComposite in2="hardAlpha" operator="out"/>
<feColorMatrix type="matrix" values="0 0 0 0 0 0 0 0 0 0 0 0 0 0 0 0 0 0 0.25 0"/>
<feBlend mode="normal" in2="BackgroundImageFix" result="effect1_dropShadow_15_72"/>
<feBlend mode="normal" in="SourceGraphic" in2="effect1_dropShadow_15_72" result="shape"/>
</filter>
<clipPath id="clip0_15_72">
<rect width="350" height="90" fill="white"/>
</clipPath>
</defs>
</svg>
